<svg width="838" height="52" viewBox="0 0 838 52" fill="none" xmlns="http://www.w3.org/2000/svg">
<g filter="url(#filter0_d_0_167)">
<rect opacity="0.3" x="4" width="830" height="44" rx="22" fill="#EBEBEB"/>
<path opacity="0.4" d="M32.024 28.128C31.4373 28.128 30.888 28.08 30.376 27.984C29.864 27.8773 29.3893 27.7173 28.952 27.504C28.5147 27.28 28.12 27.008 27.768 26.688L28.264 25.68C28.84 26.16 29.416 26.5013 29.992 26.704C30.5787 26.9067 31.2613 27.008 32.04 27.008C32.9467 27.008 33.6507 26.832 34.152 26.48C34.6533 26.1173 34.904 25.6107 34.904 24.96C34.904 24.5653 34.776 24.2507 34.52 24.016C34.2747 23.7707 33.9333 23.5787 33.496 23.44C33.0693 23.2907 32.584 23.152 32.04 23.024C31.496 22.9067 30.9787 22.7733 30.488 22.624C29.9973 22.464 29.56 22.2667 29.176 22.032C28.8027 21.7973 28.5093 21.4987 28.296 21.136C28.0827 20.7733 27.976 20.32 27.976 19.776C27.976 19.1253 28.1467 18.5547 28.488 18.064C28.8293 17.5627 29.3093 17.1733 29.928 16.896C30.5467 16.6187 31.2773 16.48 32.12 16.48C32.6427 16.48 33.144 16.5387 33.624 16.656C34.104 16.7627 34.5467 16.9227 34.952 17.136C35.368 17.3493 35.736 17.6107 36.056 17.92L35.544 18.928C35.0213 18.4693 34.4827 18.1333 33.928 17.92C33.3733 17.7067 32.7707 17.6 32.12 17.6C31.2347 17.6 30.5413 17.7867 30.04 18.16C29.5387 18.5333 29.288 19.056 29.288 19.728C29.288 20.144 29.4 20.48 29.624 20.736C29.848 20.992 30.1627 21.2 30.568 21.36C30.9733 21.5093 31.4373 21.648 31.96 21.776C32.5147 21.904 33.048 22.0427 33.56 22.192C34.072 22.3413 34.5253 22.528 34.92 22.752C35.3253 22.9653 35.6453 23.248 35.88 23.6C36.1147 23.9413 36.232 24.3787 36.232 24.912C36.232 25.5627 36.0613 26.128 35.72 26.608C35.3787 27.088 34.8933 27.4613 34.264 27.728C33.6347 27.9947 32.888 28.128 32.024 28.128ZM44.8088 27.04C44.4568 27.3707 44.0034 27.632 43.4488 27.824C42.9048 28.016 42.3448 28.112 41.7688 28.112C40.9368 28.112 40.2168 27.9467 39.6088 27.616C39.0114 27.2853 38.5474 26.8107 38.2168 26.192C37.8968 25.5627 37.7368 24.816 37.7368 23.952C37.7368 23.12 37.8968 22.3893 38.2168 21.76C38.5368 21.1307 38.9794 20.64 39.5448 20.288C40.1208 19.936 40.7821 19.76 41.5288 19.76C42.2434 19.76 42.8568 19.92 43.3688 20.24C43.8808 20.5493 44.2701 20.9973 44.5368 21.584C44.8141 22.1707 44.9528 22.8747 44.9528 23.696V23.936H38.8728V23.088H44.2168L43.8008 23.68C43.8221 22.7413 43.6354 22.0213 43.2408 21.52C42.8568 21.0187 42.2914 20.768 41.5448 20.768C40.7661 20.768 40.1528 21.0453 39.7048 21.6C39.2674 22.144 39.0488 22.9013 39.0488 23.872C39.0488 24.9173 39.2781 25.7067 39.7368 26.24C40.2061 26.7733 40.8888 27.04 41.7848 27.04C42.2541 27.04 42.7021 26.9653 43.1288 26.816C43.5661 26.656 43.9821 26.416 44.3768 26.096L44.8088 27.04ZM50.0079 28.112C49.2932 28.112 48.6639 27.9467 48.1199 27.616C47.5865 27.2747 47.1705 26.7947 46.8719 26.176C46.5839 25.5467 46.4399 24.8107 46.4399 23.968C46.4399 23.1253 46.5892 22.3893 46.8879 21.76C47.1865 21.1307 47.6025 20.64 48.1359 20.288C48.6799 19.936 49.3039 19.76 50.0079 19.76C50.7439 19.76 51.3679 19.9413 51.8799 20.304C52.3919 20.6667 52.7385 21.184 52.9199 21.856L52.7279 21.984V19.952H54.0079V28H52.7279V25.92L52.9199 26.016C52.7385 26.688 52.3919 27.2053 51.8799 27.568C51.3679 27.9307 50.7439 28.112 50.0079 28.112ZM50.2639 27.04C51.0532 27.04 51.6612 26.7733 52.0879 26.24C52.5145 25.696 52.7279 24.928 52.7279 23.936C52.7279 22.944 52.5092 22.1813 52.0719 21.648C51.6452 21.1147 51.0425 20.848 50.2639 20.848C49.4745 20.848 48.8559 21.1253 48.4079 21.68C47.9705 22.224 47.7519 22.9867 47.7519 23.968C47.7519 24.9493 47.9705 25.7067 48.4079 26.24C48.8559 26.7733 49.4745 27.04 50.2639 27.04ZM56.5136 28V22.208C56.5136 21.8347 56.503 21.4613 56.4816 21.088C56.471 20.704 56.439 20.3253 56.3856 19.952H57.6176L57.7936 21.936L57.6176 21.888C57.767 21.184 58.087 20.656 58.5776 20.304C59.079 19.9413 59.639 19.76 60.2576 19.76C60.3963 19.76 60.5243 19.7707 60.6416 19.792C60.7696 19.8027 60.887 19.824 60.9936 19.856L60.9616 21.04C60.7163 20.9547 60.4336 20.912 60.1136 20.912C59.559 20.912 59.111 21.0347 58.7696 21.28C58.439 21.5253 58.1936 21.84 58.0336 22.224C57.8843 22.5973 57.8096 22.992 57.8096 23.408V28H56.5136ZM65.5303 28.112C64.7409 28.112 64.0583 27.9413 63.4823 27.6C62.9063 27.2587 62.4583 26.7787 62.1383 26.16C61.8289 25.5413 61.6743 24.8107 61.6743 23.968C61.6743 23.136 61.8343 22.4053 62.1543 21.776C62.4743 21.136 62.9276 20.64 63.5143 20.288C64.1009 19.936 64.7943 19.76 65.5943 19.76C66.1383 19.76 66.6609 19.856 67.1623 20.048C67.6743 20.2293 68.0956 20.4853 68.4263 20.816L67.9943 21.776C67.5996 21.4667 67.2103 21.2373 66.8263 21.088C66.4529 20.928 66.0636 20.848 65.6583 20.848C64.8476 20.848 64.2023 21.12 63.7223 21.664C63.2529 22.208 63.0182 22.976 63.0182 23.968C63.0182 24.9493 63.2529 25.7067 63.7223 26.24C64.1916 26.7733 64.8369 27.04 65.6583 27.04C66.0529 27.04 66.4423 26.9653 66.8263 26.816C67.2103 26.656 67.5996 26.4213 67.9943 26.112L68.4263 27.072C68.0849 27.392 67.6529 27.648 67.1303 27.84C66.6183 28.0213 66.0849 28.112 65.5303 28.112ZM70.0761 28V16.224H71.3721V21.584L71.1641 21.744C71.3881 21.0933 71.7615 20.6027 72.2841 20.272C72.8068 19.9307 73.4095 19.76 74.0921 19.76C76.0228 19.76 76.9881 20.8213 76.9881 22.944V28H75.6921V23.008C75.6921 22.2613 75.5428 21.7173 75.2441 21.376C74.9455 21.024 74.4761 20.848 73.8361 20.848C73.0895 20.848 72.4921 21.0773 72.0441 21.536C71.5961 21.9947 71.3721 22.6133 71.3721 23.392V28H70.0761Z" fill="#30384C"/>
<path fill-rule="evenodd" clip-rule="evenodd" d="M815.901 29.4865L812.321 25.9065L812.32 25.9055C814.909 22.569 814.459 17.7939 811.292 15.0001C808.124 12.2063 803.33 12.3565 800.343 15.3432C797.357 18.3298 797.206 23.1238 800 26.2916C802.794 29.4594 807.569 29.9095 810.906 27.3195L814.486 30.8995C814.736 31.1596 815.108 31.2642 815.458 31.1729C815.808 31.0816 816.081 30.8088 816.173 30.4592C816.264 30.1097 816.16 29.7378 815.901 29.4865ZM811.197 24.0005C810.125 25.8569 808.144 27.0005 806.001 27.0005C802.687 27.0005 800.001 24.3142 800.001 21.0005C800.001 17.6868 802.687 15.0005 806.001 15.0005C808.144 15.0005 810.125 16.1441 811.197 18.0005C812.268 19.8569 812.268 22.1441 811.197 24.0005Z" fill="black"/>
</g>
<defs>
<filter id="filter0_d_0_167" x="0" y="0" width="838" height="52" filterUnits="userSpaceOnUse" color-interpolation-filters="sRGB">
<feFlood flood-opacity="0" result="BackgroundImageFix"/>
<feColorMatrix in="SourceAlpha" type="matrix" values="0 0 0 0 0 0 0 0 0 0 0 0 0 0 0 0 0 0 127 0" result="hardAlpha"/>
<feOffset dy="4"/>
<feGaussianBlur stdDeviation="2"/>
<feComposite in2="hardAlpha" operator="out"/>
<feColorMatrix type="matrix" values="0 0 0 0 0 0 0 0 0 0 0 0 0 0 0 0 0 0 0.25 0"/>
<feBlend mode="normal" in2="BackgroundImageFix" result="effect1_dropShadow_0_167"/>
<feBlend mode="normal" in="SourceGraphic" in2="effect1_dropShadow_0_167" result="shape"/>
</filter>
</defs>
</svg>
